<?xml version="1.0" encoding="UTF-8"?><svg id="artwork" xmlns="http://www.w3.org/2000/svg" viewBox="0 0 137.7 189.36"><defs><style>.cls-1{fill:#5d9948;}.cls-1,.cls-2,.cls-3,.cls-4{stroke-width:0px;}.cls-2{fill:#81b64c;}.cls-3{fill:#2e2c29;}.cls-4{fill:#b2e068;}</style></defs><path class="cls-3" d="M116.67,116.54c-6.76-5.15-11.56-10.33-14.31-15.43h5.31c.73,0,1.41-.38,1.79-1.01,6.9-11.49,9.61-20.39,8.84-33.72-.04-.66-.39-1.26-.93-1.62-2.85-1.88-8.08-5.32-10.25-6.75,9.9-21.89-2.76-49.41-25.93-55.96C48.58-8.98,16.44,26.8,30.87,58c-2.14,1.41-7.41,4.88-10.24,6.75-.55.36-.9.97-.94,1.62-.77,13.34,1.95,22.25,8.84,33.72.38.63,1.06,1.01,1.79,1.01h5.31c-6.38,11.93-27.3,22.43-31.36,38.92-17.25,44.37,20.47,49.39,64.72,49.33,30.99-.34,66.48-1.41,68.71-26.44,0-19.29-7.67-36.19-21.03-46.38Z"/><path class="cls-1" d="M106.8,129.48c-26.32-20.07-23.4-37.49-23.73-44.65,0,0,16.05,0,16.05,0,1.88-3.49,2.83-6.71,2.83-10.74l-18.2-11.99h0c6.32-4.58,10.45-12.01,10.45-20.42,0-10.58-6.52-19.64-15.76-23.38-2.92-1.18-23.53,66.52-23.53,66.52-.07,1.55-.09,3.58-.09,6.02,0,6.72,16.53,5.71,15.65,11.65-1.32,8.88-1.6,15.63-9.24,36.97-5.16,14.4-39.59,0-42.04,7.07-1.71,4.92-2.62,10.43-2.62,16.38,0,.64,1.38,10.16,52.43,10.16s52.43-9.53,52.43-10.16c0-14.48-5.41-26.41-14.62-33.44Z"/><path class="cls-2" d="M68.06,138.49c2.84-12.91,5.36-26.68,6.89-34.92,1.91-10.29-13.71-12.13-20.12-13.07-.29,8.79-2.75,23.05-23.65,38.99-5.64,4.3-9.84,10.44-12.26,17.87,5.64,2.75,13.18,4.39,24.79,4.39,7.45,0,21.25.89,24.36-13.26Z"/><path class="cls-2" d="M79.03,84.83c2.47-6.42,2.15-10.74,2.15-10.74l-10.31-11.98c10.96-4.68,17.56-13.47,17.56-23.71,0-8.18-3.9-15.44-9.93-20.04,0,0,0,0,0,0-2.94-1.2-6.15-1.86-9.51-1.86-13.92,0-25.21,11.29-25.21,25.21,0,8.4,4.12,15.84,10.45,20.42l-18.2,11.99c0,4.02.95,7.25,2.83,10.74h40.17Z"/><path class="cls-4" d="M67.54,21.62c14.54,2.26-6.69,19.12-13.4,18.33-6.37-.76-.23-20.44,13.4-18.33Z"/></svg>