<svg version="1.1" id="Layer_1" xmlns="http://www.w3.org/2000/svg" xmlns:xlink="http://www.w3.org/1999/xlink" x="0px" y="0px"
	 width="100%" viewBox="0 0 2000 2000" enable-background="new 0 0 2000 2000" xml:space="preserve">
<path fill="#FA412D" opacity="1.000000" stroke="none" 
	d="
M1.000007,1045.000000 
	C1.000000,1015.979126 1.000000,986.958191 1.356565,957.229187 
	C2.475089,944.309692 3.134600,932.090759 4.027846,919.889038 
	C4.918978,907.716125 5.604013,895.503235 7.172729,883.410828 
	C9.389803,866.320557 11.999606,849.264282 15.055262,832.304016 
	C18.864178,811.162903 22.688309,789.991394 27.592316,769.087891 
	C36.857941,729.592712 48.186943,690.653137 63.029137,652.854980 
	C72.693695,628.242615 82.547150,603.671326 93.395561,579.567566 
	C101.904892,560.660828 111.476364,542.165588 121.644073,524.088257 
	C135.259476,499.881317 149.274597,475.849365 164.264572,452.477570 
	C184.520020,420.895996 206.745407,390.660095 231.292862,362.222473 
	C245.648605,345.591675 259.726318,328.667328 274.919739,312.825073 
	C300.991364,285.640076 327.785858,259.143646 357.115662,235.378693 
	C369.913208,225.009293 382.275299,214.046371 395.563751,204.351700 
	C416.926331,188.766495 438.339294,173.122559 460.746216,159.129059 
	C488.483978,141.806366 517.002319,125.676849 545.683838,109.944160 
	C561.969727,101.010864 579.038330,93.391022 596.144836,86.094994 
	C619.250427,76.240341 642.516113,66.674156 666.115540,58.090611 
	C687.079102,50.465794 708.424988,43.755733 729.908813,37.736153 
	C751.209534,31.767874 772.782410,26.635452 794.440552,22.117052 
	C815.471985,17.729395 836.709229,14.231256 857.956665,11.005002 
	C876.480713,8.192256 895.109863,5.941580 913.759155,4.127180 
	C927.085876,2.830609 940.523804,2.685441 953.908569,1.961128 
	C954.953308,1.904590 955.970154,1.332488 957.000000,1.000002 
	C986.020935,1.000000 1015.041809,1.000000 1044.770996,1.356476 
	C1057.691040,2.474864 1069.910400,3.134249 1082.112671,4.027571 
	C1094.285645,4.918753 1106.498657,5.604192 1118.591187,7.172890 
	C1135.682007,9.389986 1152.742920,11.979673 1169.698608,15.059868 
	C1190.991577,18.927950 1212.273804,22.977657 1233.366821,27.796890 
	C1272.932739,36.836674 1311.790039,48.449310 1349.629150,63.139286 
	C1374.429810,72.767456 1399.042480,82.966133 1423.289917,93.905334 
	C1441.888184,102.295982 1460.122925,111.641060 1477.910156,121.644699 
	C1502.116821,135.258682 1526.148438,149.272736 1549.519775,164.261841 
	C1581.100830,184.516327 1611.336060,206.740814 1639.773071,231.287399 
	C1656.402954,245.642303 1673.330444,259.715179 1689.167603,274.911835 
	C1716.345337,300.990295 1742.854370,327.772827 1766.614624,357.107239 
	C1776.981567,369.906281 1787.948364,382.264679 1797.642578,395.552765 
	C1813.227783,416.915558 1828.870117,438.329742 1842.863403,460.737000 
	C1860.185913,488.475372 1876.316040,516.993835 1892.049561,545.675476 
	C1900.983643,561.961731 1908.605469,579.030090 1915.902222,596.136963 
	C1925.757812,619.242737 1935.393433,642.486450 1943.894287,666.113220 
	C1951.945312,688.489563 1958.949463,711.284424 1965.408813,734.178833 
	C1971.014771,754.048218 1975.730713,774.208252 1979.891357,794.434998 
	C1984.220581,815.480957 1987.768433,836.706787 1990.994873,857.954712 
	C1993.807617,876.479187 1996.058228,895.108643 1997.872681,913.758362 
	C1999.169312,927.085327 1999.314575,940.523499 2000.039062,953.908508 
	C2000.095459,954.953247 2000.667480,955.970154 2001.000000,957.000000 
	C2001.000000,986.020935 2001.000000,1015.041809 2000.643555,1044.770996 
	C1999.525024,1057.690674 1998.865601,1069.909546 1997.972412,1082.111206 
	C1997.081299,1094.283936 1996.395996,1106.496582 1994.827148,1118.588745 
	C1992.609985,1135.679321 1990.020142,1152.739990 1986.940186,1169.695312 
	C1983.072388,1190.988159 1979.024414,1212.270386 1974.204468,1233.363037 
	C1965.163086,1272.928955 1953.551880,1311.787231 1938.860962,1349.626465 
	C1929.232056,1374.427490 1919.032837,1399.040283 1908.093506,1423.288330 
	C1899.702881,1441.887207 1890.358765,1460.122925 1880.354858,1477.910645 
	C1866.740479,1502.118042 1852.725952,1526.150024 1837.736084,1549.521606 
	C1817.480713,1581.103271 1795.254517,1611.338867 1770.707031,1639.776611 
	C1756.351318,1656.407471 1742.272095,1673.330444 1727.078613,1689.172852 
	C1701.006958,1716.357788 1674.213745,1742.855591 1644.884399,1766.621094 
	C1632.087036,1776.990723 1619.724487,1787.953125 1606.435791,1797.647705 
	C1585.072998,1813.233154 1563.660156,1828.877441 1541.253052,1842.871216 
	C1513.515381,1860.193970 1484.996704,1876.323120 1456.315063,1892.055664 
	C1440.028931,1900.989014 1422.960205,1908.609009 1405.853516,1915.905151 
	C1382.748047,1925.759888 1359.504639,1935.394653 1335.878540,1943.895508 
	C1313.502808,1951.946533 1290.708984,1958.951904 1267.815186,1965.411133 
	C1247.946289,1971.016968 1227.786743,1975.731934 1207.560425,1979.892334 
	C1186.515137,1984.221313 1165.289795,1987.768921 1144.042725,1990.995239 
	C1125.518555,1993.807983 1106.889648,1996.058716 1088.240356,1997.873047 
	C1074.913818,1999.169434 1061.476196,1999.314453 1048.091553,2000.038818 
	C1047.046753,2000.095337 1046.029907,2000.667480 1045.000000,2001.000000 
	C1015.979126,2001.000000 986.958191,2001.000000 957.229004,2000.643555 
	C944.309814,1999.525024 932.091431,1998.865601 919.890076,1997.972412 
	C907.717468,1997.081299 895.504883,1996.396484 883.412720,1994.827881 
	C866.322388,1992.610962 849.262207,1990.020142 832.307068,1986.940430 
	C811.014526,1983.072754 789.731934,1979.026611 768.639771,1974.205688 
	C729.074829,1965.162354 690.220825,1953.541748 652.375671,1938.865845 
	C627.722961,1929.305542 603.233154,1919.235229 579.135986,1908.361572 
	C560.387695,1899.901489 542.023010,1890.444336 524.091248,1880.357422 
	C499.884735,1866.741089 475.851471,1852.728027 452.480133,1837.737427 
	C420.899261,1817.480957 390.633942,1795.289551 362.234528,1770.698242 
	C344.494812,1755.337402 326.601715,1740.102051 309.637909,1723.908936 
	C283.474091,1698.933838 258.215454,1673.029419 235.382751,1644.885864 
	C225.005295,1632.094971 214.048691,1619.727905 204.354050,1606.439575 
	C188.768875,1585.077026 173.125259,1563.663818 159.131836,1541.256836 
	C141.809204,1513.519043 125.679764,1485.000854 109.946808,1456.319458 
	C101.013283,1440.033447 93.392288,1422.965088 86.095963,1405.858643 
	C76.240860,1382.753052 66.674568,1359.487427 58.091194,1335.887817 
	C50.466454,1314.923950 43.757278,1293.577515 37.737751,1272.093506 
	C31.769466,1250.792480 26.636272,1229.219727 22.117678,1207.561401 
	C17.729855,1186.529907 14.231722,1165.292603 11.005525,1144.045044 
	C8.192789,1125.520630 5.942416,1106.891113 4.127966,1088.241333 
	C2.831373,1074.914307 2.685862,1061.475952 1.961342,1048.090820 
	C1.904799,1047.046265 1.332566,1046.029663 1.000007,1045.000000 
M789.646912,1593.008423 
	C789.631348,1592.363037 789.615845,1591.717773 789.804749,1590.145508 
	C789.846130,1588.147583 789.923462,1586.149536 789.923706,1584.151611 
	C789.929993,1519.007202 789.589111,1453.859741 790.146606,1388.720093 
	C790.303406,1370.398071 775.223572,1350.715332 752.339050,1350.853149 
	C684.364685,1351.262817 616.382324,1351.414673 548.411804,1350.761108 
	C526.447632,1350.550171 511.766296,1368.547607 511.897034,1387.631470 
	C512.348877,1453.605835 512.068787,1519.585205 512.083069,1585.562744 
	C512.083435,1587.386475 512.261414,1589.210205 512.241699,1591.682251 
	C512.226929,1592.335327 512.212158,1592.988403 512.217041,1594.624634 
	C512.162170,1610.442749 511.942902,1626.262939 512.155396,1642.077515 
	C512.216980,1646.663208 512.992676,1651.393799 514.346130,1655.778687 
	C518.282227,1668.531372 531.137512,1679.082275 542.137756,1679.068237 
	C577.939392,1679.022583 613.740967,1678.927246 649.542603,1678.895020 
	C684.346436,1678.863770 719.151672,1678.694458 753.953491,1678.960083 
	C773.888184,1679.112183 789.506531,1662.202271 789.847290,1644.592773 
	C790.175720,1627.616577 789.843628,1610.627563 789.646912,1593.008423 
M523.278137,1174.700806 
	C523.229614,1191.029541 523.191162,1207.358276 523.129761,1223.687012 
	C523.061157,1241.918213 541.404419,1257.894775 557.221313,1256.452393 
	C568.294556,1255.442749 579.534180,1256.257935 590.699463,1256.257690 
	C643.526306,1256.256470 696.361206,1255.729492 749.175659,1256.537476 
	C767.778503,1256.821899 784.666138,1237.687988 783.361511,1222.169678 
	C782.363098,1210.293457 783.194519,1198.196777 783.993591,1186.250488 
	C785.455383,1164.395386 792.221924,1143.874268 806.961182,1127.740112 
	C827.716736,1105.020264 849.783569,1083.445068 872.044800,1062.170654 
	C889.972412,1045.037720 909.865784,1029.917847 927.330872,1012.357239 
	C944.667358,994.925842 960.496887,975.922668 976.195557,956.953491 
	C996.555176,932.352173 1013.662231,905.583252 1026.526733,876.217102 
	C1047.422119,828.518860 1053.628662,778.357910 1051.777832,726.835266 
	C1051.732544,725.574646 1050.726929,724.348511 1050.017456,722.255371 
	C1050.657227,715.381104 1051.764038,708.511230 1051.828491,701.631531 
	C1051.927612,691.031799 1051.498291,680.415649 1050.946655,669.824585 
	C1050.423340,659.779297 1049.975830,649.684387 1048.586182,639.738281 
	C1043.875977,606.024048 1033.801147,573.969177 1017.926758,543.775696 
	C997.669006,505.244843 969.642517,473.420380 934.904358,446.933289 
	C934.098022,447.786407 933.393677,448.531647 932.647156,449.321503 
	C931.642456,448.637634 930.811462,448.088684 929.997437,447.515503 
	C858.437988,397.127502 778.826111,370.768524 691.438293,367.994293 
	C678.036194,367.568817 664.578979,368.448364 651.162109,369.053223 
	C639.964172,369.558075 628.731750,370.074707 617.612915,371.406555 
	C584.770691,375.340546 552.902893,383.398529 521.899963,394.943268 
	C476.523254,411.840424 432.481903,431.339752 394.679169,462.380280 
	C382.886169,472.063721 371.739319,482.644226 361.120331,493.611542 
	C353.000122,501.998138 350.213043,512.735779 354.922638,523.913147 
	C357.774048,530.680420 362.228821,536.772095 365.562256,543.671692 
	C364.355194,545.049438 363.173798,546.450745 361.937195,547.801453 
	C348.915009,562.025879 351.239807,579.675781 361.348450,592.553345 
	C374.091156,608.786438 387.690765,624.345520 400.865875,640.240784 
	C424.874573,669.206421 448.829437,698.216614 472.861053,727.163147 
	C474.328644,728.930969 476.097839,730.570068 478.018616,731.820679 
	C492.426910,741.203003 510.580383,738.713745 522.563904,729.404724 
	C536.961670,718.220215 551.724304,707.903137 567.950623,699.577332 
	C605.218323,680.454956 644.269592,669.453186 686.363342,676.123169 
	C726.258362,682.444824 759.065857,699.727600 774.846924,740.774475 
	C770.311157,756.694824 762.893982,771.071228 751.700806,783.349304 
	C724.846741,812.806091 696.450867,840.674866 665.776245,866.166565 
	C634.212769,892.396851 603.655823,919.501831 580.074341,953.654480 
	C554.413940,990.817871 535.423828,1030.638672 527.576599,1075.437012 
	C522.074402,1106.848511 523.166321,1138.499390 523.336670,1170.134277 
	C523.340149,1170.781982 523.621826,1171.427979 523.568481,1172.610718 
	C523.484375,1172.983643 523.400269,1173.356689 523.278137,1174.700806 
M1142.294312,1176.679443 
	C1142.213501,1192.675781 1142.007446,1208.672852 1142.084229,1224.668457 
	C1142.177124,1244.053711 1157.348389,1258.884521 1176.847046,1258.888550 
	C1216.011963,1258.896484 1255.177002,1258.891357 1294.341919,1258.890869 
	C1318.340820,1258.890503 1342.340210,1258.970581 1366.338623,1258.861938 
	C1386.140503,1258.772217 1400.989380,1243.759155 1401.003540,1224.084229 
	C1401.010376,1214.418091 1400.719116,1204.739136 1401.114624,1195.088501 
	C1402.080688,1171.519165 1407.975464,1148.937622 1423.756836,1131.288452 
	C1444.371338,1108.234253 1466.646362,1086.601440 1489.001343,1065.186523 
	C1507.753662,1047.223145 1528.007202,1030.834351 1546.935913,1013.045959 
	C1568.115112,993.142700 1585.678711,970.008728 1603.436523,947.085449 
	C1647.782959,889.839355 1669.285278,824.815857 1669.888062,752.668213 
	C1669.969849,742.888489 1669.263550,733.102234 1668.784424,722.353760 
	C1670.563477,699.411194 1670.288330,676.489075 1667.927734,653.603271 
	C1663.957275,615.108582 1653.044312,578.585510 1635.217896,544.324219 
	C1617.852295,510.948792 1594.089111,482.396057 1564.664795,459.078857 
	C1491.919678,401.432007 1408.418945,372.261261 1316.081421,368.220886 
	C1295.955078,367.340240 1275.691040,369.089111 1255.513794,370.093353 
	C1244.947266,370.619293 1234.331665,371.570770 1223.908203,373.334076 
	C1159.485352,384.232330 1099.774048,407.699493 1044.058838,441.596313 
	C1040.022705,444.051941 1036.253296,446.945984 1032.823853,449.315613 
	C1042.160278,462.557465 1051.060059,475.180023 1059.304443,488.056091 
	C1050.313965,493.589813 1041.323486,499.123505 1031.800659,504.984863 
	C1088.998291,573.228088 1116.048096,651.517517 1119.020996,738.746765 
	C1128.254150,738.375610 1135.827637,735.788269 1142.189453,730.194153 
	C1161.950073,712.818176 1184.745483,700.496704 1208.887817,690.606262 
	C1247.269409,674.882385 1286.685059,670.156067 1326.989624,682.132690 
	C1347.596802,688.256226 1366.226440,698.454468 1379.310547,716.100830 
	C1385.174194,724.008911 1389.015503,733.416504 1393.773560,742.872986 
	C1390.762695,750.417114 1388.223511,758.193787 1384.643555,765.457458 
	C1377.009277,780.947937 1364.308838,792.490906 1352.666626,804.804138 
	C1321.954468,837.286743 1287.552002,865.723694 1253.898926,895.000122 
	C1215.041992,928.803345 1185.308838,969.424622 1164.601807,1016.649536 
	C1152.879395,1043.383789 1145.759644,1071.437744 1143.334717,1100.306274 
	C1141.388916,1123.470093 1142.378418,1146.881226 1142.108398,1170.183228 
	C1142.093262,1171.489990 1142.470337,1172.801270 1142.482544,1174.630615 
	C1142.410034,1174.988159 1142.337524,1175.345825 1142.294312,1176.679443 
M1133.192261,1590.603638 
	C1133.424316,1591.418335 1133.656250,1592.233032 1133.811890,1593.481934 
	C1133.811890,1593.481934 1133.666138,1593.898193 1133.386353,1594.690186 
	C1133.316650,1611.677734 1133.190674,1628.665283 1133.240112,1645.652588 
	C1133.247314,1648.104370 1134.006714,1650.575073 1134.572144,1653.001099 
	C1137.917480,1667.351440 1153.601807,1679.613892 1168.841675,1679.369507 
	C1237.308228,1678.271729 1305.802368,1678.904541 1374.286499,1678.876953 
	C1392.602905,1678.869629 1407.870972,1667.845947 1409.888916,1649.735107 
	C1411.882812,1631.840576 1410.437744,1613.562866 1410.488403,1595.453247 
	C1410.488770,1595.317017 1410.309204,1595.180420 1410.031494,1594.189575 
	C1410.354370,1591.428467 1410.956909,1588.667480 1410.959106,1585.906128 
	C1411.011719,1519.580078 1411.018311,1453.254028 1410.988770,1386.927979 
	C1410.979980,1367.214844 1395.344360,1351.094482 1375.644897,1351.055908 
	C1305.986084,1350.919800 1236.326904,1350.944824 1166.668335,1351.135986 
	C1162.001953,1351.148804 1156.894165,1352.162231 1152.760132,1354.239502 
	C1139.708374,1360.798218 1133.192383,1371.853271 1133.183960,1386.503784 
	C1133.146606,1451.829956 1133.165894,1517.156128 1133.175659,1582.482300 
	C1133.176025,1584.977783 1133.290161,1587.473389 1133.192261,1590.603638 
z"/>
<path fill="#47704C" opacity="0.000000" stroke="none" 
	d="
M2001.000000,956.531372 
	C2000.667480,955.970154 2000.095459,954.953247 2000.039062,953.908508 
	C1999.314575,940.523499 1999.169312,927.085327 1997.872681,913.758362 
	C1996.058228,895.108643 1993.807617,876.479187 1990.994873,857.954712 
	C1987.768433,836.706787 1984.220581,815.480957 1979.891357,794.434998 
	C1975.730713,774.208252 1971.014771,754.048218 1965.408813,734.178833 
	C1958.949463,711.284424 1951.945312,688.489563 1943.894287,666.113220 
	C1935.393433,642.486450 1925.757812,619.242737 1915.902222,596.136963 
	C1908.605469,579.030090 1900.983643,561.961731 1892.049561,545.675476 
	C1876.316040,516.993835 1860.185913,488.475372 1842.863403,460.737000 
	C1828.870117,438.329742 1813.227783,416.915558 1797.642578,395.552765 
	C1787.948364,382.264679 1776.981567,369.906281 1766.614624,357.107239 
	C1742.854370,327.772827 1716.345337,300.990295 1689.167603,274.911835 
	C1673.330444,259.715179 1656.402954,245.642303 1639.773071,231.287399 
	C1611.336060,206.740814 1581.100830,184.516327 1549.519775,164.261841 
	C1526.148438,149.272736 1502.116821,135.258682 1477.910156,121.644699 
	C1460.122925,111.641060 1441.888184,102.295982 1423.289917,93.905334 
	C1399.042480,82.966133 1374.429810,72.767456 1349.629150,63.139286 
	C1311.790039,48.449310 1272.932739,36.836674 1233.366821,27.796890 
	C1212.273804,22.977657 1190.991577,18.927950 1169.698608,15.059868 
	C1152.742920,11.979673 1135.682007,9.389986 1118.591187,7.172890 
	C1106.498657,5.604192 1094.285645,4.918753 1082.112671,4.027571 
	C1069.910400,3.134249 1057.691040,2.474864 1045.239624,1.356476 
	C1363.593750,1.000000 1682.187500,1.000000 2001.000000,1.000000 
	C2001.000000,319.354187 2001.000000,637.708435 2001.000000,956.531372 
z"/>
<path fill="#47704C" opacity="0.000000" stroke="none" 
	d="
M1045.468628,2001.000000 
	C1046.029907,2000.667480 1047.046753,2000.095337 1048.091553,2000.038818 
	C1061.476196,1999.314453 1074.913818,1999.169434 1088.240356,1997.873047 
	C1106.889648,1996.058716 1125.518555,1993.807983 1144.042725,1990.995239 
	C1165.289795,1987.768921 1186.515137,1984.221313 1207.560425,1979.892334 
	C1227.786743,1975.731934 1247.946289,1971.016968 1267.815186,1965.411133 
	C1290.708984,1958.951904 1313.502808,1951.946533 1335.878540,1943.895508 
	C1359.504639,1935.394653 1382.748047,1925.759888 1405.853516,1915.905151 
	C1422.960205,1908.609009 1440.028931,1900.989014 1456.315063,1892.055664 
	C1484.996704,1876.323120 1513.515381,1860.193970 1541.253052,1842.871216 
	C1563.660156,1828.877441 1585.072998,1813.233154 1606.435791,1797.647705 
	C1619.724487,1787.953125 1632.087036,1776.990723 1644.884399,1766.621094 
	C1674.213745,1742.855591 1701.006958,1716.357788 1727.078613,1689.172852 
	C1742.272095,1673.330444 1756.351318,1656.407471 1770.707031,1639.776611 
	C1795.254517,1611.338867 1817.480713,1581.103271 1837.736084,1549.521606 
	C1852.725952,1526.150024 1866.740479,1502.118042 1880.354858,1477.910645 
	C1890.358765,1460.122925 1899.702881,1441.887207 1908.093506,1423.288330 
	C1919.032837,1399.040283 1929.232056,1374.427490 1938.860962,1349.626465 
	C1953.551880,1311.787231 1965.163086,1272.928955 1974.204468,1233.363037 
	C1979.024414,1212.270386 1983.072388,1190.988159 1986.940186,1169.695312 
	C1990.020142,1152.739990 1992.609985,1135.679321 1994.827148,1118.588745 
	C1996.395996,1106.496582 1997.081299,1094.283936 1997.972412,1082.111206 
	C1998.865601,1069.909546 1999.525024,1057.690674 2000.643555,1045.239746 
	C2001.000000,1363.593750 2001.000000,1682.187500 2001.000000,2001.000000 
	C1682.645752,2001.000000 1364.291504,2001.000000 1045.468628,2001.000000 
z"/>
<path fill="#47704C" opacity="0.000000" stroke="none" 
	d="
M956.531372,1.000002 
	C955.970154,1.332488 954.953308,1.904590 953.908569,1.961128 
	C940.523804,2.685441 927.085876,2.830609 913.759155,4.127180 
	C895.109863,5.941580 876.480713,8.192256 857.956665,11.005002 
	C836.709229,14.231256 815.471985,17.729395 794.440552,22.117052 
	C772.782410,26.635452 751.209534,31.767874 729.908813,37.736153 
	C708.424988,43.755733 687.079102,50.465794 666.115540,58.090611 
	C642.516113,66.674156 619.250427,76.240341 596.144836,86.094994 
	C579.038330,93.391022 561.969727,101.010864 545.683838,109.944160 
	C517.002319,125.676849 488.483978,141.806366 460.746216,159.129059 
	C438.339294,173.122559 416.926331,188.766495 395.563751,204.351700 
	C382.275299,214.046371 369.913208,225.009293 357.115662,235.378693 
	C327.785858,259.143646 300.991364,285.640076 274.919739,312.825073 
	C259.726318,328.667328 245.648605,345.591675 231.292862,362.222473 
	C206.745407,390.660095 184.520020,420.895996 164.264572,452.477570 
	C149.274597,475.849365 135.259476,499.881317 121.644073,524.088257 
	C111.476364,542.165588 101.904892,560.660828 93.395561,579.567566 
	C82.547150,603.671326 72.693695,628.242615 63.029137,652.854980 
	C48.186943,690.653137 36.857941,729.592712 27.592316,769.087891 
	C22.688309,789.991394 18.864178,811.162903 15.055262,832.304016 
	C11.999606,849.264282 9.389803,866.320557 7.172729,883.410828 
	C5.604013,895.503235 4.918978,907.716125 4.027846,919.889038 
	C3.134600,932.090759 2.475089,944.309692 1.356565,956.760498 
	C1.000000,638.406250 1.000000,319.812469 1.000000,1.000000 
	C319.354187,1.000000 637.708435,1.000000 956.531372,1.000002 
z"/>
<path fill="#47704C" opacity="0.000000" stroke="none" 
	d="
M1.000007,1045.468628 
	C1.332566,1046.029663 1.904799,1047.046265 1.961342,1048.090820 
	C2.685862,1061.475952 2.831373,1074.914307 4.127966,1088.241333 
	C5.942416,1106.891113 8.192789,1125.520630 11.005525,1144.045044 
	C14.231722,1165.292603 17.729855,1186.529907 22.117678,1207.561401 
	C26.636272,1229.219727 31.769466,1250.792480 37.737751,1272.093506 
	C43.757278,1293.577515 50.466454,1314.923950 58.091194,1335.887817 
	C66.674568,1359.487427 76.240860,1382.753052 86.095963,1405.858643 
	C93.392288,1422.965088 101.013283,1440.033447 109.946808,1456.319458 
	C125.679764,1485.000854 141.809204,1513.519043 159.131836,1541.256836 
	C173.125259,1563.663818 188.768875,1585.077026 204.354050,1606.439575 
	C214.048691,1619.727905 225.005295,1632.094971 235.382751,1644.885864 
	C258.215454,1673.029419 283.474091,1698.933838 309.637909,1723.908936 
	C326.601715,1740.102051 344.494812,1755.337402 362.234528,1770.698242 
	C390.633942,1795.289551 420.899261,1817.480957 452.480133,1837.737427 
	C475.851471,1852.728027 499.884735,1866.741089 524.091248,1880.357422 
	C542.023010,1890.444336 560.387695,1899.901489 579.135986,1908.361572 
	C603.233154,1919.235229 627.722961,1929.305542 652.375671,1938.865845 
	C690.220825,1953.541748 729.074829,1965.162354 768.639771,1974.205688 
	C789.731934,1979.026611 811.014526,1983.072754 832.307068,1986.940430 
	C849.262207,1990.020142 866.322388,1992.610962 883.412720,1994.827881 
	C895.504883,1996.396484 907.717468,1997.081299 919.890076,1997.972412 
	C932.091431,1998.865601 944.309814,1999.525024 956.760376,2000.643555 
	C638.406250,2001.000000 319.812469,2001.000000 1.000000,2001.000000 
	C1.000000,1682.645752 1.000000,1364.291504 1.000007,1045.468628 
z"/>
<path fill="#FFFFFF" opacity="1.000000" stroke="none" 
	d="
M523.773682,1172.074829 
	C523.621826,1171.427979 523.340149,1170.781982 523.336670,1170.134277 
	C523.166321,1138.499390 522.074402,1106.848511 527.576599,1075.437012 
	C535.423828,1030.638672 554.413940,990.817871 580.074341,953.654480 
	C603.655823,919.501831 634.212769,892.396851 665.776245,866.166565 
	C696.450867,840.674866 724.846741,812.806091 751.700806,783.349304 
	C762.893982,771.071228 770.311157,756.694824 774.967651,740.013184 
	C776.059143,729.254639 777.598755,719.273804 777.886353,709.256897 
	C778.552063,686.074219 769.778442,666.563660 752.894836,650.869568 
	C730.609619,630.154602 703.420898,621.073608 673.637024,619.083496 
	C656.111023,617.912292 638.635193,619.438171 621.590088,623.738342 
	C586.135986,632.682861 553.816223,648.150940 525.682068,671.732910 
	C518.111206,678.078735 509.362518,681.191223 499.950806,681.806335 
	C487.456940,682.622925 477.676727,677.787292 469.537933,667.422424 
	C451.963501,645.041260 433.321472,623.496948 415.061035,601.656433 
	C398.733582,582.127930 382.332062,562.661255 365.963196,543.167358 
	C362.228821,536.772095 357.774048,530.680420 354.922638,523.913147 
	C350.213043,512.735779 353.000122,501.998138 361.120331,493.611542 
	C371.739319,482.644226 382.886169,472.063721 394.679169,462.380280 
	C432.481903,431.339752 476.523254,411.840424 521.899963,394.943268 
	C552.902893,383.398529 584.770691,375.340546 617.612915,371.406555 
	C628.731750,370.074707 639.964172,369.558075 651.162109,369.053223 
	C664.578979,368.448364 678.036194,367.568817 691.438293,367.994293 
	C778.826111,370.768524 858.437988,397.127502 929.997437,447.515503 
	C930.811462,448.088684 931.642456,448.637634 932.647156,449.321503 
	C933.393677,448.531647 934.098022,447.786407 934.904358,446.933289 
	C969.642517,473.420380 997.669006,505.244843 1017.926758,543.775696 
	C1033.801147,573.969177 1043.875977,606.024048 1048.586182,639.738281 
	C1049.975830,649.684387 1050.423340,659.779297 1050.946655,669.824585 
	C1051.498291,680.415649 1051.927612,691.031799 1051.828491,701.631531 
	C1051.764038,708.511230 1050.657227,715.381104 1050.045166,723.125366 
	C1049.665771,729.262878 1049.519653,734.565796 1048.809204,739.792114 
	C1044.111694,774.341064 1034.580444,807.452332 1018.007996,838.238098 
	C991.723083,887.066040 957.338745,929.766479 916.452942,966.934631 
	C881.700745,998.526794 846.090027,1029.145630 813.941650,1063.496460 
	C796.604614,1082.021118 786.319580,1103.784302 784.130493,1128.954956 
	C782.906921,1143.024048 783.531372,1157.245361 783.010498,1171.386597 
	C782.495789,1185.361206 766.590271,1200.928833 752.700867,1200.948120 
	C686.719360,1201.039307 620.737549,1201.047363 554.756042,1200.949707 
	C540.849487,1200.929077 526.288147,1188.007812 524.035767,1173.939941 
	C524.009033,1173.139648 523.891357,1172.607300 523.773682,1172.074829 
z"/>
<path fill="#FFFFFF" opacity="1.000000" stroke="none" 
	d="
M1059.959839,487.802551 
	C1051.060059,475.180023 1042.160278,462.557465 1032.823853,449.315613 
	C1036.253296,446.945984 1040.022705,444.051941 1044.058838,441.596313 
	C1099.774048,407.699493 1159.485352,384.232330 1223.908203,373.334076 
	C1234.331665,371.570770 1244.947266,370.619293 1255.513794,370.093353 
	C1275.691040,369.089111 1295.955078,367.340240 1316.081421,368.220886 
	C1408.418945,372.261261 1491.919678,401.432007 1564.664795,459.078857 
	C1594.089111,482.396057 1617.852295,510.948792 1635.217896,544.324219 
	C1653.044312,578.585510 1663.957275,615.108582 1667.927734,653.603271 
	C1670.288330,676.489075 1670.563477,699.411194 1668.707031,723.171814 
	C1666.427368,737.846008 1664.249023,751.705933 1662.017212,765.557373 
	C1658.183960,789.349060 1650.191040,811.832520 1639.417847,833.235901 
	C1613.134521,885.454102 1576.860352,930.260681 1533.940796,969.432983 
	C1499.376343,1000.979553 1463.877930,1031.469604 1431.793823,1065.643799 
	C1414.805908,1083.738037 1404.497803,1104.975830 1402.101074,1129.579102 
	C1400.781250,1143.128296 1401.562134,1156.870728 1400.857300,1170.498047 
	C1400.616211,1175.160278 1399.640259,1180.234131 1397.433228,1184.261108 
	C1390.727173,1196.496582 1380.557007,1203.286621 1365.914673,1203.242554 
	C1302.428589,1203.051392 1238.941528,1203.163086 1175.454834,1203.156738 
	C1173.956299,1203.156616 1172.454712,1203.105225 1170.959717,1203.002686 
	C1158.621094,1202.156128 1144.459229,1188.609741 1143.001953,1175.936523 
	C1142.942139,1175.149902 1142.803589,1174.630127 1142.664917,1174.110474 
	C1142.470337,1172.801270 1142.093262,1171.489990 1142.108398,1170.183228 
	C1142.378418,1146.881226 1141.388916,1123.470093 1143.334717,1100.306274 
	C1145.759644,1071.437744 1152.879395,1043.383789 1164.601807,1016.649536 
	C1185.308838,969.424622 1215.041992,928.803345 1253.898926,895.000122 
	C1287.552002,865.723694 1321.954468,837.286743 1352.666626,804.804138 
	C1364.308838,792.490906 1377.009277,780.947937 1384.643555,765.457458 
	C1388.223511,758.193787 1390.762695,750.417114 1393.916260,742.117432 
	C1395.039551,731.146057 1396.621582,720.944946 1396.870117,710.711426 
	C1397.323853,692.014404 1391.232910,675.128235 1379.586304,660.641113 
	C1359.776123,635.998901 1332.442017,625.196838 1302.156616,621.220642 
	C1291.264648,619.790710 1280.027222,620.975281 1268.947388,620.999329 
	C1252.178223,621.035706 1236.152222,625.084961 1220.532349,630.655029 
	C1192.312500,640.717957 1165.964722,654.246399 1143.057861,673.913391 
	C1135.957031,680.009827 1127.875000,683.606689 1118.805664,682.990540 
	C1117.840576,670.836792 1117.345093,659.291199 1115.908936,647.863831 
	C1114.135742,633.752747 1112.053955,619.644836 1109.253784,605.706726 
	C1104.923340,584.151489 1097.922485,563.357056 1089.387329,543.100891 
	C1081.248901,523.786011 1072.048096,505.022278 1059.959839,487.802551 
z"/>
<path fill="#FFFFFF" opacity="1.000000" stroke="none" 
	d="
M512.356567,1591.033936 
	C512.261414,1589.210205 512.083435,1587.386475 512.083069,1585.562744 
	C512.068787,1519.585205 512.348877,1453.605835 511.897034,1387.631470 
	C511.766296,1368.547607 526.447632,1350.550171 548.411804,1350.761108 
	C616.382324,1351.414673 684.364685,1351.262817 752.339050,1350.853149 
	C775.223572,1350.715332 790.303406,1370.398071 790.146606,1388.720093 
	C789.589111,1453.859741 789.929993,1519.007202 789.923706,1584.151611 
	C789.923462,1586.149536 789.846130,1588.147583 789.511475,1590.869873 
	C789.165833,1592.444946 789.113403,1593.295654 789.074219,1594.525513 
	C786.344727,1600.315186 784.392639,1606.355591 780.691101,1611.002563 
	C773.462891,1620.077271 763.549622,1623.362549 751.742920,1623.310547 
	C684.483032,1623.014282 617.221191,1623.156006 549.960022,1623.195312 
	C546.156677,1623.197510 542.006958,1624.710205 538.611145,1623.639771 
	C524.931885,1619.327637 514.710754,1607.947144 513.002625,1593.817871 
	C512.829529,1592.672729 512.593079,1591.853271 512.356567,1591.033936 
z"/>
<path fill="#FFFFFF" opacity="1.000000" stroke="none" 
	d="
M1133.666138,1593.898193 
	C1133.666138,1593.898193 1133.811890,1593.481934 1133.937866,1592.948486 
	C1133.826416,1591.599609 1133.588867,1590.784180 1133.351318,1589.968872 
	C1133.290161,1587.473389 1133.176025,1584.977783 1133.175659,1582.482300 
	C1133.165894,1517.156128 1133.146606,1451.829956 1133.183960,1386.503784 
	C1133.192383,1371.853271 1139.708374,1360.798218 1152.760132,1354.239502 
	C1156.894165,1352.162231 1162.001953,1351.148804 1166.668335,1351.135986 
	C1236.326904,1350.944824 1305.986084,1350.919800 1375.644897,1351.055908 
	C1395.344360,1351.094482 1410.979980,1367.214844 1410.988770,1386.927979 
	C1411.018311,1453.254028 1411.011719,1519.580078 1410.959106,1585.906128 
	C1410.956909,1588.667480 1410.354370,1591.428467 1410.029053,1594.985840 
	C1406.237183,1611.727173 1390.716919,1624.270020 1372.743896,1623.379761 
	C1353.628906,1622.432739 1334.430298,1623.110352 1315.268677,1623.177856 
	C1263.962402,1623.358521 1212.656494,1623.597168 1161.350220,1623.771362 
	C1160.284424,1623.775024 1159.181763,1623.371826 1158.155518,1622.996460 
	C1144.438477,1617.979492 1136.688110,1607.924683 1133.666138,1593.898193 
z"/>
<path fill="#7E2118" opacity="1.000000" stroke="none" 
	d="
M1142.923218,1176.203491 
	C1144.459229,1188.609741 1158.621094,1202.156128 1170.959717,1203.002686 
	C1172.454712,1203.105225 1173.956299,1203.156616 1175.454834,1203.156738 
	C1238.941528,1203.163086 1302.428589,1203.051392 1365.914673,1203.242554 
	C1380.557007,1203.286621 1390.727173,1196.496582 1397.433228,1184.261108 
	C1399.640259,1180.234131 1400.616211,1175.160278 1400.857300,1170.498047 
	C1401.562134,1156.870728 1400.781250,1143.128296 1402.101074,1129.579102 
	C1404.497803,1104.975830 1414.805908,1083.738037 1431.793823,1065.643799 
	C1463.877930,1031.469604 1499.376343,1000.979553 1533.940796,969.432983 
	C1576.860352,930.260681 1613.134521,885.454102 1639.417847,833.235901 
	C1650.191040,811.832520 1658.183960,789.349060 1662.017212,765.557373 
	C1664.249023,751.705933 1666.427368,737.846008 1668.775879,723.654419 
	C1669.263550,733.102234 1669.969849,742.888489 1669.888062,752.668213 
	C1669.285278,824.815857 1647.782959,889.839355 1603.436523,947.085449 
	C1585.678711,970.008728 1568.115112,993.142700 1546.935913,1013.045959 
	C1528.007202,1030.834351 1507.753662,1047.223145 1489.001343,1065.186523 
	C1466.646362,1086.601440 1444.371338,1108.234253 1423.756836,1131.288452 
	C1407.975464,1148.937622 1402.080688,1171.519165 1401.114624,1195.088501 
	C1400.719116,1204.739136 1401.010376,1214.418091 1401.003540,1224.084229 
	C1400.989380,1243.759155 1386.140503,1258.772217 1366.338623,1258.861938 
	C1342.340210,1258.970581 1318.340820,1258.890503 1294.341919,1258.890869 
	C1255.177002,1258.891357 1216.011963,1258.896484 1176.847046,1258.888550 
	C1157.348389,1258.884521 1142.177124,1244.053711 1142.084229,1224.668457 
	C1142.007446,1208.672852 1142.213501,1192.675781 1142.443848,1176.316406 
	C1142.593262,1175.953247 1142.923218,1176.203491 1142.923218,1176.203491 
z"/>
<path fill="#7E2118" opacity="1.000000" stroke="none" 
	d="
M523.944763,1174.207764 
	C526.288147,1188.007812 540.849487,1200.929077 554.756042,1200.949707 
	C620.737549,1201.047363 686.719360,1201.039307 752.700867,1200.948120 
	C766.590271,1200.928833 782.495789,1185.361206 783.010498,1171.386597 
	C783.531372,1157.245361 782.906921,1143.024048 784.130493,1128.954956 
	C786.319580,1103.784302 796.604614,1082.021118 813.941650,1063.496460 
	C846.090027,1029.145630 881.700745,998.526794 916.452942,966.934631 
	C957.338745,929.766479 991.723083,887.066040 1018.007996,838.238098 
	C1034.580444,807.452332 1044.111694,774.341064 1048.809204,739.792114 
	C1049.519653,734.565796 1049.665771,729.262878 1050.121094,723.550842 
	C1050.726929,724.348511 1051.732544,725.574646 1051.777832,726.835266 
	C1053.628662,778.357910 1047.422119,828.518860 1026.526733,876.217102 
	C1013.662231,905.583252 996.555176,932.352173 976.195557,956.953491 
	C960.496887,975.922668 944.667358,994.925842 927.330872,1012.357239 
	C909.865784,1029.917847 889.972412,1045.037720 872.044800,1062.170654 
	C849.783569,1083.445068 827.716736,1105.020264 806.961182,1127.740112 
	C792.221924,1143.874268 785.455383,1164.395386 783.993591,1186.250488 
	C783.194519,1198.196777 782.363098,1210.293457 783.361511,1222.169678 
	C784.666138,1237.687988 767.778503,1256.821899 749.175659,1256.537476 
	C696.361206,1255.729492 643.526306,1256.256470 590.699463,1256.257690 
	C579.534180,1256.257935 568.294556,1255.442749 557.221313,1256.452393 
	C541.404419,1257.894775 523.061157,1241.918213 523.129761,1223.687012 
	C523.191162,1207.358276 523.229614,1191.029541 523.449829,1174.339600 
	C523.621521,1173.978271 523.944763,1174.207764 523.944763,1174.207764 
z"/>
<path fill="#7E2118" opacity="1.000000" stroke="none" 
	d="
M365.762726,543.419556 
	C382.332062,562.661255 398.733582,582.127930 415.061035,601.656433 
	C433.321472,623.496948 451.963501,645.041260 469.537933,667.422424 
	C477.676727,677.787292 487.456940,682.622925 499.950806,681.806335 
	C509.362518,681.191223 518.111206,678.078735 525.682068,671.732910 
	C553.816223,648.150940 586.135986,632.682861 621.590088,623.738342 
	C638.635193,619.438171 656.111023,617.912292 673.637024,619.083496 
	C703.420898,621.073608 730.609619,630.154602 752.894836,650.869568 
	C769.778442,666.563660 778.552063,686.074219 777.886353,709.256897 
	C777.598755,719.273804 776.059143,729.254639 774.950928,739.639893 
	C759.065857,699.727600 726.258362,682.444824 686.363342,676.123169 
	C644.269592,669.453186 605.218323,680.454956 567.950623,699.577332 
	C551.724304,707.903137 536.961670,718.220215 522.563904,729.404724 
	C510.580383,738.713745 492.426910,741.203003 478.018616,731.820679 
	C476.097839,730.570068 474.328644,728.930969 472.861053,727.163147 
	C448.829437,698.216614 424.874573,669.206421 400.865875,640.240784 
	C387.690765,624.345520 374.091156,608.786438 361.348450,592.553345 
	C351.239807,579.675781 348.915009,562.025879 361.937195,547.801453 
	C363.173798,546.450745 364.355194,545.049438 365.762726,543.419556 
z"/>
<path fill="#7E2118" opacity="1.000000" stroke="none" 
	d="
M1059.632080,487.929321 
	C1072.048096,505.022278 1081.248901,523.786011 1089.387329,543.100891 
	C1097.922485,563.357056 1104.923340,584.151489 1109.253784,605.706726 
	C1112.053955,619.644836 1114.135742,633.752747 1115.908936,647.863831 
	C1117.345093,659.291199 1117.840576,670.836792 1118.805664,682.990540 
	C1127.875000,683.606689 1135.957031,680.009827 1143.057861,673.913391 
	C1165.964722,654.246399 1192.312500,640.717957 1220.532349,630.655029 
	C1236.152222,625.084961 1252.178223,621.035706 1268.947388,620.999329 
	C1280.027222,620.975281 1291.264648,619.790710 1302.156616,621.220642 
	C1332.442017,625.196838 1359.776123,635.998901 1379.586304,660.641113 
	C1391.232910,675.128235 1397.323853,692.014404 1396.870117,710.711426 
	C1396.621582,720.944946 1395.039551,731.146057 1393.916748,741.752747 
	C1389.015503,733.416504 1385.174194,724.008911 1379.310547,716.100830 
	C1366.226440,698.454468 1347.596802,688.256226 1326.989624,682.132690 
	C1286.685059,670.156067 1247.269409,674.882385 1208.887817,690.606262 
	C1184.745483,700.496704 1161.950073,712.818176 1142.189453,730.194153 
	C1135.827637,735.788269 1128.254150,738.375610 1119.020996,738.746765 
	C1116.048096,651.517517 1088.998291,573.228088 1031.800659,504.984863 
	C1041.323486,499.123505 1050.313965,493.589813 1059.632080,487.929321 
z"/>
<path fill="#7D2017" opacity="1.000000" stroke="none" 
	d="
M512.939209,1594.143799 
	C514.710754,1607.947144 524.931885,1619.327637 538.611145,1623.639771 
	C542.006958,1624.710205 546.156677,1623.197510 549.960022,1623.195312 
	C617.221191,1623.156006 684.483032,1623.014282 751.742920,1623.310547 
	C763.549622,1623.362549 773.462891,1620.077271 780.691101,1611.002563 
	C784.392639,1606.355591 786.344727,1600.315186 789.254028,1594.391846 
	C789.420532,1593.879150 789.801697,1593.644165 789.801697,1593.644165 
	C789.843628,1610.627563 790.175720,1627.616577 789.847290,1644.592773 
	C789.506531,1662.202271 773.888184,1679.112183 753.953491,1678.960083 
	C719.151672,1678.694458 684.346436,1678.863770 649.542603,1678.895020 
	C613.740967,1678.927246 577.939392,1679.022583 542.137756,1679.068237 
	C531.137512,1679.082275 518.282227,1668.531372 514.346130,1655.778687 
	C512.992676,1651.393799 512.216980,1646.663208 512.155396,1642.077515 
	C511.942902,1626.262939 512.162170,1610.442749 512.398010,1594.250488 
	C512.578979,1593.876465 512.939209,1594.143799 512.939209,1594.143799 
z"/>
<path fill="#7D2017" opacity="1.000000" stroke="none" 
	d="
M1133.526245,1594.294189 
	C1136.688110,1607.924683 1144.438477,1617.979492 1158.155518,1622.996460 
	C1159.181763,1623.371826 1160.284424,1623.775024 1161.350220,1623.771362 
	C1212.656494,1623.597168 1263.962402,1623.358521 1315.268677,1623.177856 
	C1334.430298,1623.110352 1353.628906,1622.432739 1372.743896,1623.379761 
	C1390.716919,1624.270020 1406.237183,1611.727173 1410.120117,1595.413086 
	C1410.309204,1595.180420 1410.488770,1595.317017 1410.488403,1595.453247 
	C1410.437744,1613.562866 1411.882812,1631.840576 1409.888916,1649.735107 
	C1407.870972,1667.845947 1392.602905,1678.869629 1374.286499,1678.876953 
	C1305.802368,1678.904541 1237.308228,1678.271729 1168.841675,1679.369507 
	C1153.601807,1679.613892 1137.917480,1667.351440 1134.572144,1653.001099 
	C1134.006714,1650.575073 1133.247314,1648.104370 1133.240112,1645.652588 
	C1133.190674,1628.665283 1133.316650,1611.677734 1133.526245,1594.294189 
z"/>
<path fill="#FECEC9" opacity="1.000000" stroke="none" 
	d="
M1133.271729,1590.286255 
	C1133.588867,1590.784180 1133.826416,1591.599609 1133.976074,1592.731323 
	C1133.656250,1592.233032 1133.424316,1591.418335 1133.271729,1590.286255 
z"/>
<path fill="#FEE5E3" opacity="1.000000" stroke="none" 
	d="
M513.002625,1593.817871 
	C512.939209,1594.143799 512.578979,1593.876465 512.388184,1593.759033 
	C512.212158,1592.988403 512.226929,1592.335327 512.299133,1591.358154 
	C512.593079,1591.853271 512.829529,1592.672729 513.002625,1593.817871 
z"/>
<path fill="#FEE5E3" opacity="1.000000" stroke="none" 
	d="
M789.724304,1593.326294 
	C789.801697,1593.644165 789.420532,1593.879150 789.240723,1594.012817 
	C789.113403,1593.295654 789.165833,1592.444946 789.409302,1591.333252 
	C789.615845,1591.717773 789.631348,1592.363037 789.724304,1593.326294 
z"/>
<path fill="#FEC8C2" opacity="1.000000" stroke="none" 
	d="
M524.035767,1173.939941 
	C523.944763,1174.207764 523.621521,1173.978271 523.468872,1173.854004 
	C523.400269,1173.356689 523.484375,1172.983643 523.671082,1172.342773 
	C523.891357,1172.607300 524.009033,1173.139648 524.035767,1173.939941 
z"/>
<path fill="#FDDDDA" opacity="1.000000" stroke="none" 
	d="
M1143.001953,1175.936523 
	C1142.923218,1176.203491 1142.593262,1175.953247 1142.429199,1175.828369 
	C1142.337524,1175.345825 1142.410034,1174.988159 1142.573730,1174.370605 
	C1142.803589,1174.630127 1142.942139,1175.149902 1143.001953,1175.936523 
z"/>
</svg>