<svg version="1.1" id="Layer_1" xmlns="http://www.w3.org/2000/svg" xmlns:xlink="http://www.w3.org/1999/xlink" x="0px" y="0px"
	 width="100%" viewBox="0 0 2000 2000" enable-background="new 0 0 2000 2000" xml:space="preserve">
<path fill="#FFA459" opacity="1.000000" stroke="none" 
	d="
M1.000004,1045.000000 
	C1.000000,1015.979126 1.000000,986.958191 1.358021,957.230103 
	C2.144069,948.255676 2.502654,939.984253 3.018182,931.722534 
	C3.624989,921.998230 4.049776,912.247070 5.124630,902.570984 
	C6.829949,887.219238 8.819284,871.892578 11.041587,856.606628 
	C13.237282,841.503723 15.279041,826.338745 18.448214,811.426208 
	C23.488903,787.707214 29.175257,764.117126 35.013641,740.577942 
	C43.517616,706.291504 54.859756,672.876343 67.621399,639.976562 
	C80.588234,606.547852 94.961731,573.711853 111.981689,542.101013 
	C120.406975,526.452881 128.222122,510.421387 137.544113,495.323273 
	C153.071304,470.175049 168.943420,445.186401 185.888947,420.983826 
	C199.925049,400.936615 215.320297,381.793213 230.852798,362.855865 
	C244.670151,346.009674 258.915680,329.430969 274.020538,313.743591 
	C298.308533,288.519012 322.941589,263.580383 350.126495,241.364532 
	C365.175812,229.066055 379.716919,216.085052 395.327271,204.548553 
	C416.584381,188.838913 438.099426,173.343674 460.497833,159.347153 
	C488.220551,142.023544 516.707153,125.866966 545.361389,110.111176 
	C561.632996,101.164078 578.672729,93.495087 595.772461,86.202049 
	C619.323486,76.157455 643.042419,66.420074 667.094238,57.662792 
	C687.736877,50.146790 708.785583,43.609337 729.953247,37.710255 
	C751.256348,31.773407 772.817383,26.628849 794.469177,22.114489 
	C815.496277,17.730366 836.728149,14.231379 857.970581,11.005940 
	C876.492249,8.193621 895.118835,5.943209 913.765625,4.128637 
	C927.091187,2.831894 940.527954,2.685639 953.911499,1.960725 
	C954.955322,1.904189 955.971130,1.332358 957.000000,1.000010 
	C986.020935,1.000000 1015.041809,1.000000 1044.770020,1.358046 
	C1053.577148,2.144028 1061.680908,2.510235 1069.776001,3.015692 
	C1079.666382,3.633239 1089.585449,4.040976 1099.427368,5.126867 
	C1114.780640,6.820851 1130.107300,8.818779 1145.393677,11.041533 
	C1160.496460,13.237600 1175.661255,15.281298 1190.573853,18.450317 
	C1214.294067,23.491020 1237.885986,29.174980 1261.426025,35.014145 
	C1295.712646,43.518936 1329.127808,54.862232 1362.028076,67.623558 
	C1395.457397,80.590073 1428.291626,94.967453 1459.904297,111.983528 
	C1475.553467,120.406921 1491.583374,128.224747 1506.681396,137.547043 
	C1531.829712,153.074921 1556.818481,168.947479 1581.021240,185.893448 
	C1601.068481,199.929779 1620.211914,215.325363 1639.149414,230.858154 
	C1655.995728,244.675583 1672.573975,258.921570 1688.262207,274.025787 
	C1713.488159,298.312653 1738.419922,322.952576 1760.640625,350.132690 
	C1772.941772,365.179413 1785.919067,379.723328 1797.455566,395.333435 
	C1813.165039,416.590363 1828.661255,438.104462 1842.657349,460.502930 
	C1859.980347,488.225616 1876.135498,516.712891 1891.890625,545.367249 
	C1900.837158,561.638672 1908.506226,578.677917 1915.799316,595.777100 
	C1925.844238,619.327637 1935.652222,643.023193 1944.325073,667.102051 
	C1952.268188,689.155640 1959.099243,711.652039 1965.434448,734.229919 
	C1971.010254,754.101257 1975.737671,774.249268 1979.894653,794.469360 
	C1984.220337,815.510132 1987.769043,836.729614 1990.994507,857.971680 
	C1993.806763,876.492981 1996.057007,895.119263 1997.871338,913.765686 
	C1999.168091,927.091248 1999.314209,940.527954 2000.039185,953.911499 
	C2000.095825,954.955261 2000.667725,955.971130 2001.000000,957.000000 
	C2001.000000,986.020935 2001.000000,1015.041809 2000.641846,1044.770020 
	C1999.855835,1053.577393 1999.489380,1061.681396 1998.983887,1069.776855 
	C1998.366455,1079.667236 1997.958984,1089.586426 1996.873047,1099.428345 
	C1995.179199,1114.781494 1993.181152,1130.108032 1990.958252,1145.394287 
	C1988.762085,1160.497070 1986.718384,1175.661743 1983.549438,1190.574341 
	C1978.508789,1214.294922 1972.825195,1237.887207 1966.985840,1261.427612 
	C1958.480835,1295.713989 1947.137573,1329.129150 1934.375610,1362.029419 
	C1921.408691,1395.458862 1907.030762,1428.293335 1890.015503,1459.906738 
	C1881.592285,1475.556396 1873.773682,1491.586304 1864.451294,1506.684448 
	C1848.923462,1531.832275 1833.050903,1556.820557 1816.105225,1581.022827 
	C1802.068481,1601.070190 1786.672974,1620.213745 1771.140137,1639.151367 
	C1757.322632,1655.997681 1743.077148,1672.576416 1727.972534,1688.264282 
	C1703.685059,1713.489746 1679.043335,1738.419800 1651.865112,1760.642578 
	C1636.819092,1772.945312 1622.273804,1785.921387 1606.663330,1797.458008 
	C1585.406616,1813.167114 1563.892944,1828.663330 1541.494873,1842.659302 
	C1513.772827,1859.982178 1485.285889,1876.136597 1456.632080,1891.891235 
	C1440.361206,1900.837524 1423.322388,1908.506226 1406.223755,1915.799072 
	C1382.673462,1925.843506 1358.978271,1935.651123 1334.899902,1944.323608 
	C1312.846436,1952.266846 1290.350220,1959.098145 1267.772583,1965.433594 
	C1247.901489,1971.009644 1227.753662,1975.737427 1207.533813,1979.894409 
	C1186.492676,1984.220215 1165.272583,1987.768799 1144.030151,1990.994019 
	C1125.508301,1993.806396 1106.881714,1996.057007 1088.234741,1997.871460 
	C1074.909180,1999.168091 1061.472290,1999.314331 1048.088623,2000.039307 
	C1047.044800,2000.095825 1046.028931,2000.667603 1045.000000,2001.000000 
	C1015.979126,2001.000000 986.958191,2001.000000 957.230103,2000.641846 
	C948.255981,1999.855957 939.984802,1999.497437 931.723389,1998.981812 
	C921.998535,1998.375000 912.246826,1997.950195 902.570251,1996.875366 
	C887.217285,1995.170044 871.889343,1993.181396 856.602295,1990.958374 
	C841.498840,1988.761841 826.308411,1986.810913 811.424194,1983.534546 
	C784.060486,1977.511230 756.611816,1971.568237 729.718994,1963.791992 
	C699.488708,1955.050537 669.533936,1945.131714 640.008362,1934.237305 
	C606.378418,1921.828369 573.694031,1907.024902 542.078552,1890.011108 
	C526.427856,1881.588501 510.399506,1873.765259 495.301208,1864.441528 
	C470.153992,1848.912598 445.166199,1833.039185 420.964081,1816.092896 
	C400.917084,1802.055908 381.773315,1786.660767 362.835724,1771.128052 
	C345.989288,1757.310181 329.410614,1743.063721 313.722382,1727.958984 
	C288.496582,1703.671143 263.565277,1679.030029 241.343216,1651.850586 
	C229.041153,1636.804321 216.066483,1622.258179 204.530151,1606.647827 
	C188.822128,1585.392456 173.325775,1563.881104 159.331390,1541.484375 
	C142.010193,1513.763306 125.858284,1485.276978 110.105583,1456.624146 
	C101.160179,1440.353394 93.492096,1423.315308 86.199173,1406.217407 
	C76.154694,1382.668701 66.415939,1358.952759 57.658806,1334.903198 
	C50.142590,1314.261597 43.605927,1293.213379 37.707504,1272.046387 
	C31.771397,1250.743896 26.628403,1229.183228 22.114555,1207.532104 
	C17.730846,1186.505249 14.231280,1165.273804 11.005872,1144.031616 
	C8.193540,1125.509888 5.943392,1106.883301 4.128892,1088.236328 
	C2.832148,1074.910156 2.685740,1061.472900 1.960724,1048.088623 
	C1.904179,1047.044800 1.332348,1046.028931 1.000004,1045.000000 
M823.157349,1621.117676 
	C823.192505,1622.776367 823.227661,1624.434937 823.187073,1627.015869 
	C823.171753,1640.843506 823.122253,1654.671387 823.148743,1668.498901 
	C823.195190,1692.749756 837.008850,1706.643066 861.032349,1706.644409 
	C924.340759,1706.647949 987.649231,1706.660034 1050.957642,1706.625000 
	C1057.784058,1706.621216 1064.629395,1706.599487 1071.431763,1706.109131 
	C1080.869385,1705.428711 1088.685059,1701.246338 1094.472046,1693.709351 
	C1101.077148,1685.106812 1104.055420,1675.138916 1104.187622,1664.427612 
	C1104.387085,1648.269897 1104.224731,1632.107788 1104.518188,1615.645386 
	C1104.427979,1615.113159 1104.337646,1614.580811 1104.269165,1613.105591 
	C1104.268921,1546.650879 1104.469604,1480.195068 1104.137939,1413.741943 
	C1104.046631,1395.424561 1096.563843,1385.086914 1080.043091,1379.201294 
	C1074.392700,1377.188232 1067.994385,1376.568970 1061.931030,1376.534668 
	C1022.126038,1376.309204 982.319153,1376.379150 942.513000,1376.431030 
	C913.202026,1376.469238 883.888184,1376.442749 854.583252,1376.916626 
	C849.855347,1376.993042 844.698242,1378.712280 840.549255,1381.087036 
	C828.539490,1387.960449 823.150818,1398.922852 823.153320,1412.666870 
	C823.165161,1479.121582 823.157104,1545.576416 823.167542,1612.031128 
	C823.167786,1613.692261 823.300720,1615.353516 823.213684,1617.818481 
	C823.166565,1618.642944 823.119385,1619.467285 823.157349,1621.117676 
M833.185303,1205.997314 
	C833.169800,1220.157471 833.137512,1234.317627 833.142883,1248.477783 
	C833.150513,1268.459473 847.216858,1283.043823 867.173096,1283.085693 
	C931.644531,1283.220947 996.118530,1282.869629 1060.586670,1283.346924 
	C1074.841187,1283.452515 1093.707031,1267.937134 1093.136597,1251.022339 
	C1092.822266,1241.704346 1093.146118,1232.366577 1093.080200,1223.038330 
	C1092.883667,1195.188843 1101.966553,1170.723999 1120.309204,1149.868896 
	C1143.450317,1123.558105 1168.660889,1099.253906 1195.437622,1076.736084 
	C1231.278076,1046.596191 1264.007446,1013.704529 1292.402100,976.359741 
	C1317.869873,942.864502 1337.698486,906.604248 1350.039185,866.384216 
	C1361.292114,829.708923 1363.684448,791.926270 1363.067017,753.840332 
	C1363.008057,750.210083 1362.526001,746.586731 1362.079956,742.070557 
	C1362.427612,734.114502 1362.844727,726.160706 1363.111572,718.201965 
	C1365.014282,661.427490 1352.220093,608.172729 1324.375610,558.658386 
	C1289.354248,496.381989 1236.062256,454.599915 1172.358887,425.067505 
	C1121.524292,401.501038 1067.713867,389.296295 1011.860413,386.032043 
	C976.306763,383.954193 940.956055,385.769440 905.936890,392.573059 
	C853.727356,402.716461 804.749329,421.725189 757.533936,445.905304 
	C727.730652,461.168213 701.304688,480.780487 677.414124,504.063293 
	C661.843262,519.238037 658.985535,533.542603 668.551147,551.646423 
	C670.466248,555.270874 673.384583,558.365173 675.274963,562.077026 
	C657.084595,578.524841 661.711548,600.071289 673.271851,613.920532 
	C708.388428,655.990479 743.500427,698.064331 778.613159,740.137573 
	C781.590820,743.705505 784.028870,747.972412 787.625183,750.731873 
	C802.331299,762.015930 819.391663,761.656555 834.207275,750.002380 
	C854.648193,733.923218 876.072205,720.125305 900.149109,710.050293 
	C933.612793,696.047424 968.202209,690.305054 1003.697449,697.258301 
	C1041.217163,704.607910 1072.121094,722.334656 1086.141968,761.800537 
	C1083.656494,768.670593 1081.563477,775.714844 1078.606445,782.375549 
	C1071.725342,797.875183 1060.571167,810.350586 1048.596069,821.967468 
	C1026.972168,842.944458 1005.971924,864.739990 982.856873,883.964050 
	C945.132507,915.338196 909.762268,948.441223 882.629883,989.822388 
	C853.760620,1033.852539 836.550232,1081.615234 834.002747,1134.261841 
	C832.932922,1156.370972 833.424500,1178.555664 833.176697,1201.581665 
	C833.204773,1202.745239 833.232849,1203.908936 833.185303,1205.997314 
z"/>
<path fill="#47704C" opacity="0.000000" stroke="none" 
	d="
M2001.000000,956.531372 
	C2000.667725,955.971130 2000.095825,954.955261 2000.039185,953.911499 
	C1999.314209,940.527954 1999.168091,927.091248 1997.871338,913.765686 
	C1996.057007,895.119263 1993.806763,876.492981 1990.994507,857.971680 
	C1987.769043,836.729614 1984.220337,815.510132 1979.894653,794.469360 
	C1975.737671,774.249268 1971.010254,754.101257 1965.434448,734.229919 
	C1959.099243,711.652039 1952.268188,689.155640 1944.325073,667.102051 
	C1935.652222,643.023193 1925.844238,619.327637 1915.799316,595.777100 
	C1908.506226,578.677917 1900.837158,561.638672 1891.890625,545.367249 
	C1876.135498,516.712891 1859.980347,488.225616 1842.657349,460.502930 
	C1828.661255,438.104462 1813.165039,416.590363 1797.455566,395.333435 
	C1785.919067,379.723328 1772.941772,365.179413 1760.640625,350.132690 
	C1738.419922,322.952576 1713.488159,298.312653 1688.262207,274.025787 
	C1672.573975,258.921570 1655.995728,244.675583 1639.149414,230.858154 
	C1620.211914,215.325363 1601.068481,199.929779 1581.021240,185.893448 
	C1556.818481,168.947479 1531.829712,153.074921 1506.681396,137.547043 
	C1491.583374,128.224747 1475.553467,120.406921 1459.904297,111.983528 
	C1428.291626,94.967453 1395.457397,80.590073 1362.028076,67.623558 
	C1329.127808,54.862232 1295.712646,43.518936 1261.426025,35.014145 
	C1237.885986,29.174980 1214.294067,23.491020 1190.573853,18.450317 
	C1175.661255,15.281298 1160.496460,13.237600 1145.393677,11.041533 
	C1130.107300,8.818779 1114.780640,6.820851 1099.427368,5.126867 
	C1089.585449,4.040976 1079.666382,3.633239 1069.776001,3.015692 
	C1061.680908,2.510235 1053.577148,2.144028 1045.238525,1.358046 
	C1363.593750,1.000000 1682.187500,1.000000 2001.000000,1.000000 
	C2001.000000,319.354187 2001.000000,637.708435 2001.000000,956.531372 
z"/>
<path fill="#47704C" opacity="0.000000" stroke="none" 
	d="
M1045.468628,2001.000000 
	C1046.028931,2000.667603 1047.044800,2000.095825 1048.088623,2000.039307 
	C1061.472290,1999.314331 1074.909180,1999.168091 1088.234741,1997.871460 
	C1106.881714,1996.057007 1125.508301,1993.806396 1144.030151,1990.994019 
	C1165.272583,1987.768799 1186.492676,1984.220215 1207.533813,1979.894409 
	C1227.753662,1975.737427 1247.901489,1971.009644 1267.772583,1965.433594 
	C1290.350220,1959.098145 1312.846436,1952.266846 1334.899902,1944.323608 
	C1358.978271,1935.651123 1382.673462,1925.843506 1406.223755,1915.799072 
	C1423.322388,1908.506226 1440.361206,1900.837524 1456.632080,1891.891235 
	C1485.285889,1876.136597 1513.772827,1859.982178 1541.494873,1842.659302 
	C1563.892944,1828.663330 1585.406616,1813.167114 1606.663330,1797.458008 
	C1622.273804,1785.921387 1636.819092,1772.945312 1651.865112,1760.642578 
	C1679.043335,1738.419800 1703.685059,1713.489746 1727.972534,1688.264282 
	C1743.077148,1672.576416 1757.322632,1655.997681 1771.140137,1639.151367 
	C1786.672974,1620.213745 1802.068481,1601.070190 1816.105225,1581.022827 
	C1833.050903,1556.820557 1848.923462,1531.832275 1864.451294,1506.684448 
	C1873.773682,1491.586304 1881.592285,1475.556396 1890.015503,1459.906738 
	C1907.030762,1428.293335 1921.408691,1395.458862 1934.375610,1362.029419 
	C1947.137573,1329.129150 1958.480835,1295.713989 1966.985840,1261.427612 
	C1972.825195,1237.887207 1978.508789,1214.294922 1983.549438,1190.574341 
	C1986.718384,1175.661743 1988.762085,1160.497070 1990.958252,1145.394287 
	C1993.181152,1130.108032 1995.179199,1114.781494 1996.873047,1099.428345 
	C1997.958984,1089.586426 1998.366455,1079.667236 1998.983887,1069.776855 
	C1999.489380,1061.681396 1999.855835,1053.577393 2000.641846,1045.238525 
	C2001.000000,1363.593750 2001.000000,1682.187500 2001.000000,2001.000000 
	C1682.645752,2001.000000 1364.291504,2001.000000 1045.468628,2001.000000 
z"/>
<path fill="#47704C" opacity="0.000000" stroke="none" 
	d="
M956.531372,1.000010 
	C955.971130,1.332358 954.955322,1.904189 953.911499,1.960725 
	C940.527954,2.685639 927.091187,2.831894 913.765625,4.128637 
	C895.118835,5.943209 876.492249,8.193621 857.970581,11.005940 
	C836.728149,14.231379 815.496277,17.730366 794.469177,22.114489 
	C772.817383,26.628849 751.256348,31.773407 729.953247,37.710255 
	C708.785583,43.609337 687.736877,50.146790 667.094238,57.662792 
	C643.042419,66.420074 619.323486,76.157455 595.772461,86.202049 
	C578.672729,93.495087 561.632996,101.164078 545.361389,110.111176 
	C516.707153,125.866966 488.220551,142.023544 460.497833,159.347153 
	C438.099426,173.343674 416.584381,188.838913 395.327271,204.548553 
	C379.716919,216.085052 365.175812,229.066055 350.126495,241.364532 
	C322.941589,263.580383 298.308533,288.519012 274.020538,313.743591 
	C258.915680,329.430969 244.670151,346.009674 230.852798,362.855865 
	C215.320297,381.793213 199.925049,400.936615 185.888947,420.983826 
	C168.943420,445.186401 153.071304,470.175049 137.544113,495.323273 
	C128.222122,510.421387 120.406975,526.452881 111.981689,542.101013 
	C94.961731,573.711853 80.588234,606.547852 67.621399,639.976562 
	C54.859756,672.876343 43.517616,706.291504 35.013641,740.577942 
	C29.175257,764.117126 23.488903,787.707214 18.448214,811.426208 
	C15.279041,826.338745 13.237282,841.503723 11.041587,856.606628 
	C8.819284,871.892578 6.829949,887.219238 5.124630,902.570984 
	C4.049776,912.247070 3.624989,921.998230 3.018182,931.722534 
	C2.502654,939.984253 2.144069,948.255676 1.358021,956.761414 
	C1.000000,638.406250 1.000000,319.812469 1.000000,1.000000 
	C319.354187,1.000000 637.708435,1.000000 956.531372,1.000010 
z"/>
<path fill="#47704C" opacity="0.000000" stroke="none" 
	d="
M1.000004,1045.468628 
	C1.332348,1046.028931 1.904179,1047.044800 1.960724,1048.088623 
	C2.685740,1061.472900 2.832148,1074.910156 4.128892,1088.236328 
	C5.943392,1106.883301 8.193540,1125.509888 11.005872,1144.031616 
	C14.231280,1165.273804 17.730846,1186.505249 22.114555,1207.532104 
	C26.628403,1229.183228 31.771397,1250.743896 37.707504,1272.046387 
	C43.605927,1293.213379 50.142590,1314.261597 57.658806,1334.903198 
	C66.415939,1358.952759 76.154694,1382.668701 86.199173,1406.217407 
	C93.492096,1423.315308 101.160179,1440.353394 110.105583,1456.624146 
	C125.858284,1485.276978 142.010193,1513.763306 159.331390,1541.484375 
	C173.325775,1563.881104 188.822128,1585.392456 204.530151,1606.647827 
	C216.066483,1622.258179 229.041153,1636.804321 241.343216,1651.850586 
	C263.565277,1679.030029 288.496582,1703.671143 313.722382,1727.958984 
	C329.410614,1743.063721 345.989288,1757.310181 362.835724,1771.128052 
	C381.773315,1786.660767 400.917084,1802.055908 420.964081,1816.092896 
	C445.166199,1833.039185 470.153992,1848.912598 495.301208,1864.441528 
	C510.399506,1873.765259 526.427856,1881.588501 542.078552,1890.011108 
	C573.694031,1907.024902 606.378418,1921.828369 640.008362,1934.237305 
	C669.533936,1945.131714 699.488708,1955.050537 729.718994,1963.791992 
	C756.611816,1971.568237 784.060486,1977.511230 811.424194,1983.534546 
	C826.308411,1986.810913 841.498840,1988.761841 856.602295,1990.958374 
	C871.889343,1993.181396 887.217285,1995.170044 902.570251,1996.875366 
	C912.246826,1997.950195 921.998535,1998.375000 931.723389,1998.981812 
	C939.984802,1999.497437 948.255981,1999.855957 956.761475,2000.641846 
	C638.406250,2001.000000 319.812469,2001.000000 1.000000,2001.000000 
	C1.000000,1682.645752 1.000000,1364.291504 1.000004,1045.468628 
z"/>
<path fill="#FFFFFF" opacity="1.000000" stroke="none" 
	d="
M675.840332,561.703918 
	C673.384583,558.365173 670.466248,555.270874 668.551147,551.646423 
	C658.985535,533.542603 661.843262,519.238037 677.414124,504.063293 
	C701.304688,480.780487 727.730652,461.168213 757.533936,445.905304 
	C804.749329,421.725189 853.727356,402.716461 905.936890,392.573059 
	C940.956055,385.769440 976.306763,383.954193 1011.860413,386.032043 
	C1067.713867,389.296295 1121.524292,401.501038 1172.358887,425.067505 
	C1236.062256,454.599915 1289.354248,496.381989 1324.375610,558.658386 
	C1352.220093,608.172729 1365.014282,661.427490 1363.111572,718.201965 
	C1362.844727,726.160706 1362.427612,734.114502 1362.098755,742.957031 
	C1361.023804,753.182983 1360.215820,762.566528 1358.783203,771.853699 
	C1354.245972,801.267029 1345.393677,829.340881 1332.314453,856.106689 
	C1306.062622,909.830322 1268.631958,955.027832 1224.883179,995.067871 
	C1193.567017,1023.729370 1160.744751,1050.743774 1131.655762,1081.803711 
	C1120.708130,1093.493164 1109.313110,1105.029541 1103.484741,1120.195190 
	C1099.061157,1131.705566 1095.120972,1143.740356 1093.467896,1155.882446 
	C1091.777222,1168.302979 1093.292358,1181.141235 1093.066650,1193.790649 
	C1092.994507,1197.837036 1092.499023,1202.113892 1091.067871,1205.853149 
	C1086.847778,1216.879639 1074.187012,1227.945557 1058.938477,1227.855469 
	C995.965088,1227.483154 932.987854,1227.587158 870.012756,1227.772949 
	C852.856323,1227.823608 841.281982,1220.163696 834.444580,1204.335449 
	C833.989441,1202.892822 833.597839,1201.799316 833.206238,1200.705933 
	C833.424500,1178.555664 832.932922,1156.370972 834.002747,1134.261841 
	C836.550232,1081.615234 853.760620,1033.852539 882.629883,989.822388 
	C909.762268,948.441223 945.132507,915.338196 982.856873,883.964050 
	C1005.971924,864.739990 1026.972168,842.944458 1048.596069,821.967468 
	C1060.571167,810.350586 1071.725342,797.875183 1078.606445,782.375549 
	C1081.563477,775.714844 1083.656494,768.670593 1086.381104,761.123291 
	C1089.818726,745.729309 1089.908936,730.896790 1088.032471,716.034851 
	C1086.125977,700.935486 1079.968140,687.662048 1069.553955,676.613281 
	C1046.308472,651.951233 1016.857544,641.032959 983.699463,639.093262 
	C975.643677,638.621948 967.450684,639.212402 959.408813,640.106750 
	C949.024902,641.261597 938.445129,642.199097 928.447815,645.005005 
	C894.782959,654.453552 863.646667,669.149414 837.156189,692.500488 
	C831.853821,697.174561 825.761658,699.815186 819.105835,701.649475 
	C805.675781,705.350525 793.720520,702.120483 784.579041,692.151978 
	C773.797180,680.394714 764.292969,667.473999 754.061157,655.202576 
	C728.039185,623.993347 701.920410,592.864746 675.840332,561.703918 
z"/>
<path fill="#FFFFFF" opacity="1.000000" stroke="none" 
	d="
M823.371826,1617.014648 
	C823.300720,1615.353516 823.167786,1613.692261 823.167542,1612.031128 
	C823.157104,1545.576416 823.165161,1479.121582 823.153320,1412.666870 
	C823.150818,1398.922852 828.539490,1387.960449 840.549255,1381.087036 
	C844.698242,1378.712280 849.855347,1376.993042 854.583252,1376.916626 
	C883.888184,1376.442749 913.202026,1376.469238 942.513000,1376.431030 
	C982.319153,1376.379150 1022.126038,1376.309204 1061.931030,1376.534668 
	C1067.994385,1376.568970 1074.392700,1377.188232 1080.043091,1379.201294 
	C1096.563843,1385.086914 1104.046631,1395.424561 1104.137939,1413.741943 
	C1104.469604,1480.195068 1104.268921,1546.650879 1103.995605,1613.695557 
	C1103.561157,1614.782349 1103.400269,1615.279053 1103.163330,1616.208252 
	C1101.429443,1634.861694 1087.418579,1651.207275 1066.671143,1651.074341 
	C1026.674194,1650.817993 986.674255,1650.999756 946.675598,1650.999756 
	C916.509949,1650.999756 886.343689,1650.895264 856.178833,1651.050903 
	C844.189697,1651.112671 835.379639,1645.941162 829.294006,1635.928223 
	C827.412964,1632.833252 826.233887,1629.311768 824.733215,1625.628174 
	C824.425598,1623.626099 824.118225,1621.981079 823.886902,1619.996094 
	C823.765930,1618.775513 823.568909,1617.895142 823.371826,1617.014648 
z"/>
<path fill="#80522D" opacity="1.000000" stroke="none" 
	d="
M834.508179,1204.684692 
	C841.281982,1220.163696 852.856323,1227.823608 870.012756,1227.772949 
	C932.987854,1227.587158 995.965088,1227.483154 1058.938477,1227.855469 
	C1074.187012,1227.945557 1086.847778,1216.879639 1091.067871,1205.853149 
	C1092.499023,1202.113892 1092.994507,1197.837036 1093.066650,1193.790649 
	C1093.292358,1181.141235 1091.777222,1168.302979 1093.467896,1155.882446 
	C1095.120972,1143.740356 1099.061157,1131.705566 1103.484741,1120.195190 
	C1109.313110,1105.029541 1120.708130,1093.493164 1131.655762,1081.803711 
	C1160.744751,1050.743774 1193.567017,1023.729370 1224.883179,995.067871 
	C1268.631958,955.027832 1306.062622,909.830322 1332.314453,856.106689 
	C1345.393677,829.340881 1354.245972,801.267029 1358.783203,771.853699 
	C1360.215820,762.566528 1361.023804,753.182983 1362.178955,743.401855 
	C1362.526001,746.586731 1363.008057,750.210083 1363.067017,753.840332 
	C1363.684448,791.926270 1361.292114,829.708923 1350.039185,866.384216 
	C1337.698486,906.604248 1317.869873,942.864502 1292.402100,976.359741 
	C1264.007446,1013.704529 1231.278076,1046.596191 1195.437622,1076.736084 
	C1168.660889,1099.253906 1143.450317,1123.558105 1120.309204,1149.868896 
	C1101.966553,1170.723999 1092.883667,1195.188843 1093.080200,1223.038330 
	C1093.146118,1232.366577 1092.822266,1241.704346 1093.136597,1251.022339 
	C1093.707031,1267.937134 1074.841187,1283.452515 1060.586670,1283.346924 
	C996.118530,1282.869629 931.644531,1283.220947 867.173096,1283.085693 
	C847.216858,1283.043823 833.150513,1268.459473 833.142883,1248.477783 
	C833.137512,1234.317627 833.169800,1220.157471 833.541016,1205.457886 
	C834.100525,1204.840576 834.304382,1204.762695 834.508179,1204.684692 
z"/>
<path fill="#81532E" opacity="1.000000" stroke="none" 
	d="
M675.557678,561.890503 
	C701.920410,592.864746 728.039185,623.993347 754.061157,655.202576 
	C764.292969,667.473999 773.797180,680.394714 784.579041,692.151978 
	C793.720520,702.120483 805.675781,705.350525 819.105835,701.649475 
	C825.761658,699.815186 831.853821,697.174561 837.156189,692.500488 
	C863.646667,669.149414 894.782959,654.453552 928.447815,645.005005 
	C938.445129,642.199097 949.024902,641.261597 959.408813,640.106750 
	C967.450684,639.212402 975.643677,638.621948 983.699463,639.093262 
	C1016.857544,641.032959 1046.308472,651.951233 1069.553955,676.613281 
	C1079.968140,687.662048 1086.125977,700.935486 1088.032471,716.034851 
	C1089.908936,730.896790 1089.818726,745.729309 1086.361084,760.721924 
	C1072.121094,722.334656 1041.217163,704.607910 1003.697449,697.258301 
	C968.202209,690.305054 933.612793,696.047424 900.149109,710.050293 
	C876.072205,720.125305 854.648193,733.923218 834.207275,750.002380 
	C819.391663,761.656555 802.331299,762.015930 787.625183,750.731873 
	C784.028870,747.972412 781.590820,743.705505 778.613159,740.137573 
	C743.500427,698.064331 708.388428,655.990479 673.271851,613.920532 
	C661.711548,600.071289 657.084595,578.524841 675.557678,561.890503 
z"/>
<path fill="#80522D" opacity="1.000000" stroke="none" 
	d="
M824.733459,1625.985474 
	C826.233887,1629.311768 827.412964,1632.833252 829.294006,1635.928223 
	C835.379639,1645.941162 844.189697,1651.112671 856.178833,1651.050903 
	C886.343689,1650.895264 916.509949,1650.999756 946.675598,1650.999756 
	C986.674255,1650.999756 1026.674194,1650.817993 1066.671143,1651.074341 
	C1087.418579,1651.207275 1101.429443,1634.861694 1103.401123,1616.288940 
	C1103.882202,1615.940552 1104.049194,1615.943970 1104.216187,1615.947510 
	C1104.224731,1632.107788 1104.387085,1648.269897 1104.187622,1664.427612 
	C1104.055420,1675.138916 1101.077148,1685.106812 1094.472046,1693.709351 
	C1088.685059,1701.246338 1080.869385,1705.428711 1071.431763,1706.109131 
	C1064.629395,1706.599487 1057.784058,1706.621216 1050.957642,1706.625000 
	C987.649231,1706.660034 924.340759,1706.647949 861.032349,1706.644409 
	C837.008850,1706.643066 823.195190,1692.749756 823.148743,1668.498901 
	C823.122253,1654.671387 823.171753,1640.843506 823.470947,1626.553467 
	C824.084473,1626.087158 824.410645,1626.052002 824.733459,1625.985474 
z"/>
<path fill="#A2683A" opacity="1.000000" stroke="none" 
	d="
M824.733215,1625.628174 
	C824.410645,1626.052002 824.084473,1626.087158 823.508789,1626.092285 
	C823.227661,1624.434937 823.192505,1622.776367 823.299194,1620.714844 
	C823.440979,1620.311890 823.810852,1620.336182 823.810791,1620.336182 
	C824.118225,1621.981079 824.425598,1623.626099 824.733215,1625.628174 
z"/>
<path fill="#A2683A" opacity="1.000000" stroke="none" 
	d="
M834.444580,1204.335449 
	C834.304382,1204.762695 834.100525,1204.840576 833.578857,1204.995483 
	C833.232849,1203.908936 833.204773,1202.745239 833.191467,1201.143799 
	C833.597839,1201.799316 833.989441,1202.892822 834.444580,1204.335449 
z"/>
<path fill="#CE864A" opacity="1.000000" stroke="none" 
	d="
M1104.367188,1615.796387 
	C1104.049194,1615.943970 1103.882202,1615.940552 1103.477417,1615.856445 
	C1103.400269,1615.279053 1103.561157,1614.782349 1103.984619,1614.166992 
	C1104.337646,1614.580811 1104.427979,1615.113159 1104.367188,1615.796387 
z"/>
<path fill="#FFE7D4" opacity="1.000000" stroke="none" 
	d="
M823.886963,1619.996094 
	C823.810852,1620.336182 823.440979,1620.311890 823.256592,1620.301758 
	C823.119385,1619.467285 823.166565,1618.642944 823.292725,1617.416504 
	C823.568909,1617.895142 823.765930,1618.775513 823.886963,1619.996094 
z"/>
</svg>